<svg xmlns="http://www.w3.org/2000/svg" xmlns:xlink="http://www.w3.org/1999/xlink" preserveAspectRatio="xMidYMid" width="175" height="175" viewBox="0 0 175 175">
  <defs>
    <style>
      .cls-1 {
        fill: #000;
        fill-rule: evenodd;
      }
    </style>
  </defs>
  <path d="M24.000,30.000 L9.000,120.000 L158.000,136.000 L164.000,9.000 L24.000,30.000 ZM29.000,35.000 L15.000,115.000 L150.000,128.000 L157.000,15.000 L29.000,35.000 ZM74.000,128.000 L74.000,134.000 L108.000,140.000 L107.000,132.000 L74.000,128.000 ZM109.000,136.000 L109.000,142.000 L73.000,135.000 L73.000,132.000 L69.000,133.000 L61.000,136.000 L55.000,139.000 L50.000,143.000 L46.000,148.000 L45.000,153.000 L45.000,157.000 L48.000,161.000 L52.000,165.000 L59.000,168.000 L67.000,170.000 L76.000,171.000 L86.000,171.000 L98.000,170.000 L107.000,166.000 L115.000,162.000 L119.000,157.000 L121.000,153.000 L121.000,148.000 L119.000,142.000 L114.000,138.000 L109.000,136.000 Z" class="cls-1"/>
</svg>
