<svg xmlns="http://www.w3.org/2000/svg" xmlns:xlink="http://www.w3.org/1999/xlink" preserveAspectRatio="xMidYMid" width="225" height="180" viewBox="-2.5 20 225 180">
  <defs>
    <style>
      .cls-1 {
        fill: #000;
        fill-rule: evenodd;
      }
    </style>
  </defs>
  <path d="M26.000,72.000 L38.000,72.000 L38.000,128.000 L14.000,128.000 L8.000,126.000 L4.000,122.000 L2.000,119.000 L0.000,114.000 L0.000,106.000 L1.000,100.000 L5.000,95.000 L11.000,91.000 L14.000,90.000 L26.000,90.000 L26.000,72.000 ZM26.000,100.000 L26.000,120.000 L16.000,120.000 L13.000,117.000 L11.000,113.000 L11.000,105.000 L13.000,102.000 L16.000,100.000 L26.000,100.000 ZM45.000,72.000 L45.000,84.000 L57.000,84.000 L57.000,72.000 L45.000,72.000 ZM45.000,91.000 L57.000,91.000 L57.000,128.000 L54.000,136.000 L49.000,142.000 L43.000,146.000 L33.000,140.000 L39.000,136.000 L43.000,131.000 L45.000,125.000 L45.000,91.000 ZM64.000,93.000 L64.000,102.000 L71.000,100.000 L74.000,99.000 L80.000,99.000 L83.000,100.000 L83.000,104.000 L77.000,105.000 L71.000,105.000 L66.000,106.000 L63.000,109.000 L62.000,115.000 L62.000,122.000 L64.000,125.000 L66.000,127.000 L70.000,128.000 L93.000,128.000 L94.000,97.000 L92.000,93.000 L89.000,90.000 L85.000,89.000 L72.000,89.000 L69.000,90.000 L66.000,91.000 L64.000,93.000 ZM83.000,112.000 L83.000,121.000 L75.000,121.000 L72.000,119.000 L72.000,115.000 L74.000,113.000 L77.000,112.000 L83.000,112.000 ZM99.000,89.000 L99.000,128.000 L111.000,128.000 L111.000,101.000 L113.000,99.000 L121.000,99.000 L123.000,100.000 L123.000,103.000 L123.000,128.000 L135.000,128.000 L135.000,99.000 L133.000,94.000 L129.000,91.000 L124.000,89.000 L108.000,89.000 L105.000,90.000 L103.000,91.000 L99.000,89.000 ZM182.000,91.000 L178.000,99.000 L175.000,99.000 L175.000,132.000 L173.000,138.000 L170.000,142.000 L166.000,146.000 L162.000,148.000 L159.000,148.000 L147.000,149.000 L144.000,147.000 L140.000,146.000 L140.000,135.000 L145.000,138.000 L148.000,139.000 L159.000,139.000 L162.000,136.000 L164.000,133.000 L164.000,128.000 L159.000,128.000 L151.000,128.000 L147.000,126.000 L143.000,123.000 L140.000,119.000 L139.000,116.000 L139.000,108.000 L140.000,102.000 L142.000,97.000 L148.000,93.000 L153.000,91.000 L158.000,90.000 L171.000,90.000 L176.000,91.000 L182.000,91.000 ZM181.000,105.000 L181.000,115.000 L184.000,121.000 L190.000,127.000 L193.000,129.000 L196.000,129.000 L207.000,129.000 L212.000,126.000 L216.000,121.000 L218.000,117.000 L219.000,112.000 L219.000,103.000 L216.000,97.000 L212.000,92.000 L208.000,90.000 L204.000,89.000 L193.000,89.000 L190.000,91.000 L187.000,93.000 L184.000,98.000 L182.000,101.000 L181.000,105.000 ZM192.000,106.000 L192.000,114.000 L195.000,117.000 L198.000,119.000 L202.000,119.000 L206.000,117.000 L208.000,113.000 L208.000,104.000 L206.000,101.000 L203.000,99.000 L197.000,99.000 L194.000,102.000 L192.000,106.000 ZM163.000,99.000 L163.000,118.000 L160.000,119.000 L156.000,119.000 L151.000,117.000 L149.000,113.000 L149.000,104.000 L152.000,101.000 L157.000,99.000 L160.000,99.000 L163.000,99.000 Z" class="cls-1"/>
</svg>
