<svg xmlns="http://www.w3.org/2000/svg" xmlns:xlink="http://www.w3.org/1999/xlink" preserveAspectRatio="xMidYMid" width="50" height="50" viewBox="0 0 500 500">
  <defs>
    <style>
      .cls-1 {
        fill: #000;
        fill-rule: evenodd;
      }
    </style>
  </defs>
  <path d="M184.000,64.000 L240.000,118.000 L261.000,118.000 L275.000,126.000 L284.000,137.000 L287.000,152.000 L285.000,164.000 L339.000,217.000 L351.000,215.000 L369.000,221.000 L379.000,228.000 L384.000,238.000 L386.000,253.000 L383.000,266.000 L376.000,275.000 L366.000,284.000 L347.000,288.000 L332.000,283.000 L320.000,271.000 L315.000,256.000 L316.000,239.000 L267.000,189.000 L267.000,320.000 L280.000,327.000 L285.000,338.000 L288.000,350.000 L284.000,363.000 L276.000,375.000 L267.000,381.000 L254.000,385.000 L236.000,385.000 L227.000,379.000 L219.000,369.000 L214.000,351.000 L217.000,334.000 L225.000,323.000 L236.000,316.000 L236.000,187.000 L225.000,180.000 L216.000,167.000 L213.000,149.000 L217.000,139.000 L161.000,85.000 L14.000,230.000 L8.000,243.000 L11.000,260.000 L16.000,269.000 L229.000,479.000 L248.000,489.000 L264.000,484.000 L274.000,477.000 L483.000,269.000 L490.000,260.000 L490.000,246.000 L484.000,231.000 L269.000,17.000 L258.000,12.000 L248.000,10.000 L240.000,11.000 L233.000,16.000 L184.000,64.000 Z" class="cls-1"/>
</svg>
