<svg xmlns="http://www.w3.org/2000/svg" xmlns:xlink="http://www.w3.org/1999/xlink" preserveAspectRatio="xMidYMid" width="320" height="290" viewBox="90 105 320 290">
  <defs>
    <style>
      .cls-1 {
        fill: #000;
        fill-rule: evenodd;
      }
    </style>
  </defs>
  <path d="M147.000,126.000 L198.000,126.000 L198.000,326.000 L194.000,348.000 L179.000,373.000 L158.000,387.000 L130.000,390.000 L108.000,388.000 L91.000,383.000 L101.000,341.000 L109.000,344.000 L114.000,346.000 L130.000,346.000 L139.000,342.000 L144.000,333.000 L147.000,321.000 L147.000,126.000 ZM402.000,136.000 L386.000,179.000 L367.000,171.000 L350.000,167.000 L316.000,165.000 L303.000,169.000 L294.000,177.000 L290.000,188.000 L292.000,202.000 L304.000,215.000 L317.000,223.000 L368.000,247.000 L384.000,258.000 L399.000,275.000 L407.000,296.000 L407.000,324.000 L400.000,349.000 L382.000,372.000 L366.000,382.000 L350.000,387.000 L322.000,392.000 L291.000,391.000 L265.000,387.000 L233.000,376.000 L249.000,333.000 L269.000,340.000 L282.000,345.000 L304.000,348.000 L326.000,347.000 L340.000,344.000 L350.000,335.000 L355.000,326.000 L356.000,312.000 L352.000,301.000 L340.000,291.000 L329.000,285.000 L275.000,259.000 L257.000,244.000 L243.000,223.000 L239.000,210.000 L239.000,181.000 L245.000,161.000 L259.000,141.000 L277.000,130.000 L305.000,121.000 L353.000,122.000 L402.000,136.000 Z" class="cls-1"/>
</svg>
