<svg xmlns="http://www.w3.org/2000/svg" xmlns:xlink="http://www.w3.org/1999/xlink" preserveAspectRatio="xMidYMid" width="220" height="203" viewBox="0 0 220 203">
  <defs>
    <style>
      .cls-1 {
        fill: #000;
        fill-rule: evenodd;
      }
    </style>
  </defs>
  <path d="M78.000,61.000 L105.000,61.000 L105.000,64.000 L64.000,64.000 L61.000,65.000 L58.000,67.000 L55.000,70.000 L52.000,75.000 L51.000,81.000 L50.000,84.000 L50.000,97.000 L52.000,108.000 L55.000,112.000 L59.000,116.000 L62.000,118.000 L76.000,118.000 L76.000,103.000 L76.000,99.000 L78.000,96.000 L81.000,94.000 L84.000,92.000 L87.000,90.000 L121.000,90.000 L124.000,89.000 L127.000,86.000 L129.000,84.000 L132.000,81.000 L132.000,78.000 L132.000,47.000 L131.000,44.000 L129.000,42.000 L125.000,39.000 L121.000,37.000 L117.000,36.000 L93.000,36.000 L90.000,36.000 L88.000,37.000 L83.000,40.000 L81.000,42.000 L79.000,44.000 L78.000,47.000 L78.000,61.000 ZM85.000,51.000 L87.000,54.000 L91.000,54.000 L94.000,52.000 L95.000,49.000 L95.000,46.000 L93.000,44.000 L91.000,44.000 L88.000,44.000 L86.000,46.000 L85.000,48.000 L85.000,51.000 ZM134.000,64.000 L134.000,82.000 L131.000,87.000 L129.000,89.000 L124.000,92.000 L88.000,93.000 L84.000,95.000 L81.000,99.000 L78.000,104.000 L78.000,135.000 L82.000,140.000 L86.000,143.000 L93.000,145.000 L98.000,146.000 L115.000,146.000 L120.000,145.000 L123.000,143.000 L126.000,141.000 L130.000,138.000 L132.000,135.000 L132.000,121.000 L105.000,121.000 L105.000,118.000 L150.000,118.000 L154.000,113.000 L159.000,103.000 L160.000,95.000 L160.000,80.000 L158.000,74.000 L156.000,70.000 L153.000,67.000 L150.000,64.000 L134.000,64.000 ZM120.000,128.000 L118.000,128.000 L116.000,130.000 L115.000,131.000 L115.000,134.000 L116.000,136.000 L118.000,137.000 L122.000,137.000 L124.000,136.000 L125.000,134.000 L125.000,132.000 L125.000,130.000 L123.000,128.000 L120.000,128.000 Z" class="cls-1"/>
</svg>
