<svg xmlns="http://www.w3.org/2000/svg" xmlns:xlink="http://www.w3.org/1999/xlink" preserveAspectRatio="xMidYMid" width="92" height="92" viewBox="99.038 9.038 176.923 176.923">
  <defs>
    <style>
      .cls-1 {
        fill: #000;
        fill-rule: evenodd;
      }
    </style>
  </defs>
  <path d="M146.000,51.000 L187.000,51.000 L187.000,56.000 L127.000,55.000 L122.000,56.000 L118.000,58.000 L115.000,61.000 L112.000,65.000 L108.000,70.000 L106.000,76.000 L103.000,84.000 L103.000,108.000 L105.000,117.000 L108.000,125.000 L112.000,131.000 L116.000,135.000 L120.000,138.000 L141.000,138.000 L141.000,116.000 L143.000,109.000 L146.000,104.000 L151.000,100.000 L155.000,97.000 L161.000,95.000 L211.000,95.000 L218.000,92.000 L223.000,87.000 L227.000,82.000 L228.000,78.000 L228.000,31.000 L226.000,25.000 L223.000,21.000 L219.000,18.000 L214.000,14.000 L206.000,12.000 L166.000,12.000 L162.000,13.000 L157.000,15.000 L154.000,18.000 L150.000,22.000 L148.000,25.000 L146.000,29.000 L146.000,51.000 ZM157.000,37.000 L160.000,40.000 L163.000,41.000 L166.000,41.000 L169.000,40.000 L171.000,37.000 L172.000,34.000 L172.000,31.000 L171.000,28.000 L169.000,26.000 L167.000,24.000 L163.000,24.000 L161.000,24.000 L159.000,26.000 L157.000,29.000 L156.000,32.000 L157.000,37.000 ZM232.000,56.000 L252.000,55.000 L260.000,58.000 L265.000,64.000 L269.000,72.000 L271.000,83.000 L271.000,113.000 L269.000,120.000 L266.000,128.000 L262.000,134.000 L256.000,138.000 L187.000,138.000 L187.000,143.000 L228.000,144.000 L228.000,161.000 L226.000,168.000 L219.000,175.000 L208.000,180.000 L196.000,183.000 L179.000,183.000 L170.000,181.000 L161.000,177.000 L153.000,172.000 L149.000,167.000 L147.000,162.000 L147.000,114.000 L151.000,108.000 L156.000,102.000 L160.000,100.000 L215.000,100.000 L222.000,96.000 L228.000,89.000 L232.000,81.000 L232.000,77.000 L232.000,56.000 ZM208.000,154.000 L213.000,154.000 L217.000,157.000 L217.000,161.000 L217.000,164.000 L215.000,167.000 L212.000,169.000 L207.000,169.000 L205.000,167.000 L203.000,164.000 L203.000,159.000 L205.000,155.000 L208.000,154.000 Z" class="cls-1"/>
</svg>
