<svg xmlns="http://www.w3.org/2000/svg" xmlns:xlink="http://www.w3.org/1999/xlink" preserveAspectRatio="xMidYMid" width="300" height="281" viewBox="5 0 300 281">
  <defs>
    <style>
      .cls-1 {
        fill: #000;
        fill-rule: evenodd;
      }
    </style>
  </defs>
  <path d="M199.000,25.000 L199.000,34.000 L203.000,44.000 L209.000,51.000 L217.000,55.000 L225.000,56.000 L233.000,55.000 L241.000,51.000 L248.000,44.000 L252.000,36.000 L252.000,24.000 L248.000,16.000 L242.000,9.000 L234.000,5.000 L226.000,4.000 L218.000,4.000 L211.000,7.000 L206.000,11.000 L202.000,16.000 L199.000,25.000 ZM187.000,32.000 L189.000,41.000 L194.000,51.000 L200.000,58.000 L208.000,64.000 L218.000,67.000 L229.000,68.000 L237.000,66.000 L243.000,63.000 L251.000,73.000 L260.000,87.000 L266.000,99.000 L270.000,112.000 L273.000,130.000 L227.000,130.000 L226.000,124.000 L223.000,113.000 L217.000,104.000 L209.000,93.000 L197.000,83.000 L189.000,79.000 L177.000,75.000 L163.000,72.000 L150.000,73.000 L138.000,78.000 L116.000,39.000 L128.000,34.000 L143.000,30.000 L160.000,29.000 L187.000,32.000 ZM99.000,49.000 L122.000,88.000 L106.000,105.000 L98.000,129.000 L99.000,156.000 C107.286,174.993 114.000,184.000 114.000,184.000 L122.000,190.000 L99.000,230.000 L83.000,216.000 L65.000,191.000 L57.000,170.000 L68.000,161.000 L73.000,147.000 L73.000,131.000 L68.000,118.000 L58.000,107.000 L61.000,95.000 L65.000,84.000 L71.000,75.000 L78.000,66.000 L88.000,56.000 L99.000,49.000 ZM46.000,114.000 L56.000,122.000 L61.000,134.000 L61.000,148.000 L53.000,160.000 L38.000,167.000 L21.000,163.000 L10.000,150.000 L9.000,133.000 L17.000,120.000 L29.000,113.000 L46.000,114.000 ZM115.000,239.000 L129.000,245.000 L144.000,248.000 L160.000,250.000 L188.000,247.000 L190.000,234.000 L196.000,225.000 L205.000,217.000 L218.000,211.000 L229.000,211.000 L243.000,215.000 L254.000,200.000 L264.000,184.000 L270.000,169.000 L272.000,148.000 L227.000,148.000 L224.000,163.000 L218.000,176.000 L206.000,188.000 L193.000,197.000 L177.000,204.000 L162.000,206.000 L149.000,205.000 L138.000,201.000 L115.000,239.000 ZM215.000,224.000 L226.000,222.000 L238.000,226.000 L247.000,234.000 L251.000,245.000 L251.000,255.000 L247.000,264.000 L238.000,272.000 L229.000,275.000 L217.000,274.000 L211.000,271.000 L205.000,265.000 L200.000,256.000 L199.000,245.000 L201.000,236.000 L206.000,230.000 L215.000,224.000 Z" class="cls-1"/>
</svg>
